<svg width="32" height="33" viewBox="0 0 32 33" fill="none" xmlns="http://www.w3.org/2000/svg">
<path d="M1.35973 15.7936L14.793 1.85043C15.1826 1.44607 15.8287 1.44164 16.2238 1.84062L29.8471 15.5982C30.539 16.297 29.9126 17.47 28.9471 17.2838L28.1879 17.1373L26.0598 30.4687C25.9832 30.9488 25.5724 31.3042 25.0863 31.311L17.5654 31.4156L17.8617 23.711C17.9156 22.3103 16.7946 21.1454 15.3929 21.1454C13.9911 21.1454 12.8701 22.3103 12.924 23.711L13.2203 31.4156L5.60059 31.4417C5.09235 31.4435 4.66364 31.0637 4.60405 30.559L3.03987 17.3098L2.28272 17.4666C1.31982 17.6661 0.677471 16.5018 1.35973 15.7936Z" stroke="#643B9F" stroke-width="2" stroke-linecap="round" stroke-linejoin="round"/>
</svg>
