<svg width="36" height="36" viewBox="0 0 36 36" fill="none" xmlns="http://www.w3.org/2000/svg">
<path d="M15.9492 6.31885C15.9496 6.31905 15.95 6.31925 15.9503 6.31945L19.4464 5.36511C18.513 5.90528 17.3512 5.92894 16.4167 5.43484L15.9492 6.31885ZM15.9492 6.31885L15.0652 5.85143L15.06 5.86124L16.4166 5.43481L15.9492 6.31885ZM11.7443 4.43541L11.7539 4.39873L10.8301 4.15495L10.787 4.14358L9.82014 3.88844L9.81064 3.92443L9.55486 4.89374C8.73291 4.74023 7.83634 4.63411 6.97867 4.56071M11.7443 4.43541L5.95811 28.4576C5.95796 28.4576 5.95781 28.4576 5.95766 28.4576C5.95579 28.4575 5.95392 28.4574 5.95206 28.4572C5.95204 28.4572 5.95201 28.4572 5.95199 28.4572L5.95012 28.4571L4.95401 28.3948L4.96122 28.2796L5.02424 27.2719L5.02579 27.2473M11.7443 4.43541L11.4885 5.40484C12.5172 5.7613 13.6052 6.25279 14.5924 6.74554L14.4755 6.9666M11.7443 4.43541L14.4755 6.9666M6.97867 4.56071L7.04004 3.56228L7.04073 3.55097L6.04261 3.48963L5.0445 3.42828L5.03665 3.55591L4.97548 4.55117L4.97229 4.60305C4.06442 4.87621 3.34716 5.58854 3.03896 6.49688M6.97867 4.56071C6.63768 4.53152 6.30283 4.50751 5.98127 4.48774C5.68582 4.46959 5.4001 4.49589 5.1295 4.56063L6.97172 4.67386L6.97867 4.56071ZM3.03896 6.49688H1.99836H1.875V7.49688V8.49688H2.875M3.03896 6.49688C2.93264 6.81021 2.875 7.14687 2.875 7.49688V8.49688M3.03896 6.49688H3.30383C3.58995 5.72979 4.19648 5.13045 4.95579 4.87153L5.04215 26.9856M2.875 8.49688V23.2155M2.875 8.49688H3.125V23.2155H2.875M2.875 23.2155H1.875V24.2155V25.2155H1.99607H3.03804M2.875 23.2155V24.2155C2.875 24.565 2.93234 24.901 3.03804 25.2155M3.03804 25.2155C3.35214 26.1503 4.09328 26.8962 5.02579 27.2473M3.03804 25.2155H3.30353C3.59886 26.0155 4.23724 26.6602 5.04215 26.9856M5.02579 27.2473L5.04215 26.9856M5.02579 27.2473C5.05319 27.2576 5.08076 27.2676 5.10849 27.2772L5.04215 26.9856M14.4755 6.9666C13.5003 6.48003 12.4316 5.99753 11.4245 5.64724M14.4755 6.9666L11.4245 5.64724M11.4669 5.4865L10.5 5.23135L9.5331 4.97621L9.4909 5.13611C8.68697 4.98685 7.80824 4.88277 6.96333 4.81032L6.9027 5.79674L11.4669 5.4865ZM11.4669 5.4865L11.4245 5.64724M11.4669 5.4865L11.4245 5.64724M19.9468 6.23093C19.9426 6.23334 19.9384 6.23574 19.9343 6.23813L19.0818 6.73145L19.9468 6.23093ZM9.4909 27.855C8.70237 27.7086 7.84184 27.6056 7.0118 27.5334L7.02034 27.3968L7.02741 27.2838C7.87023 27.357 8.74845 27.462 9.55487 27.6126L9.5331 27.6951L9.4909 27.855ZM21.4458 6.82347L21.3205 6.607C22.1076 6.18043 22.9549 5.76329 23.7693 5.44216L23.792 5.51815L23.8412 5.68251C23.0479 5.99667 22.2198 6.40424 21.4458 6.82347ZM29.1284 4.69894C28.0166 4.76602 26.8199 4.88935 25.7573 5.10918L25.708 4.94456L25.6853 4.86882C26.7723 4.6423 27.9931 4.51676 29.1197 4.449L29.1236 4.5616L29.1284 4.69894ZM31.1243 4.54562C31.9885 4.83405 32.6642 5.5265 32.9609 6.39998H32.696C32.4216 5.6651 31.8523 5.08467 31.1336 4.81483L31.1243 4.54562ZM32.875 23.2155V8.39998H33.125V23.2155H32.875ZM32.6965 25.2155H32.962C32.6479 26.1503 31.9067 26.8962 30.9742 27.2473L30.9578 26.9856C31.7628 26.6602 32.4011 26.0155 32.6965 25.2155ZM24.5115 28.1237L24.5331 28.2054L24.5755 28.3662C23.521 28.7329 22.3993 29.2445 21.388 29.7539L21.2703 29.5332C22.2934 29.0176 23.435 28.4967 24.5115 28.1237ZM19.4528 30.3752L19.559 30.5745L19.559 30.5745L19.5726 30.6001C18.5502 30.9151 17.4498 30.9151 16.4274 30.6001L16.441 30.5745L16.441 30.5745L16.5472 30.3752C17.4932 30.6568 18.5068 30.6568 19.4528 30.3752ZM14.7297 29.5332L14.612 29.7539C13.6007 29.2445 12.4789 28.7329 11.4245 28.3662L11.4669 28.2054L11.4885 28.1237C12.565 28.4967 13.7066 29.0176 14.7297 29.5332ZM28.9726 27.2838L28.9797 27.3969L28.9796 27.3969L28.9882 27.5334C28.1581 27.6056 27.2976 27.7086 26.5091 27.855L26.4669 27.6951L26.4451 27.6126C27.2516 27.462 28.1298 27.357 28.9726 27.2838ZM19.6608 7.73207C18.5771 8.11251 17.3917 8.14064 16.2939 7.8065L16.3074 7.78086L16.3074 7.78082L16.4129 7.58116C17.4314 7.88053 18.5267 7.85468 19.5332 7.5117L19.6452 7.70513L19.6452 7.7051L19.6608 7.73207Z" fill="#643B9F" stroke="#643B9F" stroke-width="2"/>
<path opacity="0.5" d="M18 8.78101V31.4999" stroke="#1C274C" stroke-width="1.5"/>
<path opacity="0.5" d="M7.5 13.5L13.5 15" stroke="#1C274C" stroke-width="1.5" stroke-linecap="round"/>
<path opacity="0.5" d="M28.5 13.5L22.5 15" stroke="#1C274C" stroke-width="1.5" stroke-linecap="round"/>
<path opacity="0.5" d="M7.5 19.5L13.5 21" stroke="#1C274C" stroke-width="1.5" stroke-linecap="round"/>
<path opacity="0.5" d="M28.5 19.5L22.5 21" stroke="#1C274C" stroke-width="1.5" stroke-linecap="round"/>
</svg>
