<svg width="33" height="29" viewBox="0 0 33 29" fill="none" xmlns="http://www.w3.org/2000/svg">
<path d="M2.25 20.8155V4.09685H0V20.8155H2.25ZM32.25 20.8155V3.99995H30V20.8155H32.25ZM28.2089 0.00245258C26.5013 0.0619426 24.2694 0.239557 22.5524 0.753577L23.1976 2.90906C24.6214 2.48284 26.6088 2.30956 28.2872 2.25109L28.2089 0.00245258ZM22.5524 0.753577C21.0599 1.20041 19.3809 2.07317 18.0723 2.8306L19.1993 4.77797C20.475 4.03969 21.9673 3.27739 23.1976 2.90906L22.5524 0.753577ZM4.02958 2.33537C5.47857 2.42443 7.11965 2.5976 8.33796 2.91908L8.91204 0.743557C7.47082 0.363247 5.64775 0.180578 4.16761 0.0896026L4.02958 2.33537ZM8.33796 2.91908C9.78114 3.29992 11.5573 4.13309 13.0225 4.90787L14.0742 2.91883C12.581 2.12924 10.6165 1.19333 8.91204 0.743557L8.33796 2.91908ZM19.0956 27.6968C20.5821 26.9043 22.4232 26.0309 23.9121 25.638L23.3379 23.4624C21.5824 23.9256 19.5491 24.9053 18.0372 25.7112L19.0956 27.6968ZM23.9121 25.638C25.1165 25.3202 26.7348 25.1471 28.173 25.0572L28.0324 22.8116C26.5623 22.9035 24.7636 23.0862 23.3379 23.4624L23.9121 25.638ZM14.2128 25.7112C12.7009 24.9053 10.6675 23.9256 8.91204 23.4624L8.33796 25.638C9.8268 26.0309 11.6679 26.9043 13.1544 27.6968L14.2128 25.7112ZM8.91204 23.4624C7.48638 23.0862 5.68764 22.9035 4.21752 22.8116L4.07706 25.0572C5.5152 25.1471 7.13349 25.3202 8.33796 25.638L8.91204 23.4624ZM30 20.8155C30 21.8442 29.1475 22.7418 28.0324 22.8116L28.173 25.0572C30.3843 24.9189 32.25 23.1198 32.25 20.8155H30ZM32.25 3.99995C32.25 1.80499 30.5021 -0.0774224 28.2089 0.00245258L28.2872 2.25109C29.2094 2.21897 30 2.97757 30 3.99995H32.25ZM0 20.8155C0 23.1198 1.86567 24.9189 4.07706 25.0572L4.21752 22.8116C3.10246 22.7418 2.25 21.8442 2.25 20.8155H0ZM18.0372 25.7112C16.8488 26.3448 15.4012 26.3448 14.2128 25.7112L13.1544 27.6968C15.0043 28.6829 17.2456 28.6829 19.0956 27.6968L18.0372 25.7112ZM18.0723 2.8306C16.8451 3.54079 15.3175 3.57622 14.0742 2.91883L13.0225 4.90787C14.9608 5.93281 17.3115 5.87053 19.1993 4.77797L18.0723 2.8306ZM2.25 4.09685C2.25 3.05108 3.07864 2.27692 4.02958 2.33537L4.16761 0.0896026C1.83025 -0.0540524 0 1.84813 0 4.09685H2.25Z" fill="#AA8DD3"/>
<path d="M2.25 4.09685V20.8155C2.25 21.8442 3.10246 22.7418 4.21752 22.8116C5.68764 22.9035 7.48638 23.0862 8.91204 23.4624C10.6675 23.9256 12.7009 24.9053 14.2128 25.7112C15.4012 26.3448 16.8488 26.3448 18.0372 25.7112C19.5491 24.9053 21.5824 23.9256 23.3379 23.4624C24.7636 23.0862 26.5623 22.9035 28.0324 22.8116C29.1475 22.7418 30 21.8442 30 20.8155V3.99995C30 2.97757 29.2094 2.21897 28.2872 2.25109C26.6088 2.30956 24.6214 2.48284 23.1976 2.90906C21.9673 3.27739 20.475 4.03969 19.1993 4.77797C17.3115 5.87053 14.9608 5.93281 13.0225 4.90787C11.5573 4.13309 9.78114 3.29992 8.33796 2.91908C7.11965 2.5976 5.47857 2.42443 4.02958 2.33537C3.07864 2.27692 2.25 3.05108 2.25 4.09685Z" fill="#AA8DD3"/>
<g opacity="0.5">
<path d="M16 5V27V5Z" fill="#643B9F"/>
<path d="M16 5V27" stroke="#E7E1FF" stroke-width="1.5"/>
</g>
<path opacity="0.5" d="M5.625 10.1L11.625 11.6" stroke="#E7E1FF" stroke-width="1.5" stroke-linecap="round"/>
<g opacity="0.5">
<path d="M26.625 10.1L20.625 11.6L26.625 10.1Z" fill="#643B9F"/>
<path d="M26.625 10.1L20.625 11.6" stroke="#E7E1FF" stroke-width="1.5" stroke-linecap="round"/>
</g>
<g opacity="0.5">
<path d="M5.625 16.1L11.625 17.6L5.625 16.1Z" fill="#E7E1FF"/>
<path d="M5.625 16.1L11.625 17.6" stroke="#E7E1FF" stroke-width="1.5" stroke-linecap="round"/>
</g>
<path opacity="0.5" d="M26.625 16.1L20.625 17.6" stroke="#E7E1FF" stroke-width="1.5" stroke-linecap="round"/>
</svg>
