<svg width="30" height="31" viewBox="0 0 30 31" fill="none" xmlns="http://www.w3.org/2000/svg">
<path fill-rule="evenodd" clip-rule="evenodd" d="M5.3 29.8372H24.139C26.5138 29.8372 28.439 27.912 28.439 25.5372V8.5697H1V25.5372C1 27.912 2.92518 29.8372 5.3 29.8372ZM7.4488 14.3372H6.62441C5.74076 14.3372 5.02441 15.0535 5.02441 15.9372V16.7023C5.02441 17.5859 5.74076 18.3023 6.62441 18.3023H7.4488C8.33246 18.3023 9.0488 17.5859 9.0488 16.7023V15.9372C9.0488 15.0535 8.33246 14.3372 7.4488 14.3372ZM15.4976 14.3372H14.6732C13.7896 14.3372 13.0732 15.0535 13.0732 15.9372V16.7023C13.0732 17.5859 13.7896 18.3023 14.6732 18.3023H15.4976C16.3813 18.3023 17.0976 17.5859 17.0976 16.7023V15.9372C17.0976 15.0535 16.3813 14.3372 15.4976 14.3372ZM22.8146 22.2675H21.9903C21.1066 22.2675 20.3903 22.9838 20.3903 23.8675V24.6326C20.3903 25.5162 21.1066 26.2326 21.9903 26.2326H22.8146C23.6983 26.2326 24.4146 25.5162 24.4146 24.6326V23.8675C24.4146 22.9838 23.6983 22.2675 22.8146 22.2675ZM7.4488 22.2675H6.62441C5.74076 22.2675 5.02441 22.9838 5.02441 23.8675V24.6326C5.02441 25.5162 5.74076 26.2326 6.62441 26.2326H7.4488C8.33246 26.2326 9.0488 25.5162 9.0488 24.6326V23.8675C9.0488 22.9838 8.33246 22.2675 7.4488 22.2675Z" fill="#AA8DD3"/>
<path d="M6.62441 22.2675H7.4488C8.33246 22.2675 9.0488 22.9838 9.0488 23.8675V24.6326C9.0488 25.5162 8.33246 26.2326 7.4488 26.2326H6.62441C5.74076 26.2326 5.02441 25.5162 5.02441 24.6326V23.8675C5.02441 22.9838 5.74076 22.2675 6.62441 22.2675Z" fill="#AA8DD3"/>
<path d="M21.9903 22.2675H22.8146C23.6983 22.2675 24.4146 22.9838 24.4146 23.8675V24.6326C24.4146 25.5162 23.6983 26.2326 22.8146 26.2326H21.9903C21.1066 26.2326 20.3903 25.5162 20.3903 24.6326V23.8675C20.3903 22.9838 21.1066 22.2675 21.9903 22.2675Z" fill="#AA8DD3"/>
<path d="M28.439 7.10233C28.439 4.72751 26.5138 2.80225 24.139 2.80225H20.7561H9.04883H5.3C2.92518 2.80225 1 4.72742 1 7.10225V8.5697H28.439V7.10233Z" fill="#AA8DD3"/>
<path d="M6.62441 14.3372H7.4488C8.33246 14.3372 9.0488 15.0535 9.0488 15.9372V16.7023C9.0488 17.5859 8.33246 18.3023 7.4488 18.3023H6.62441C5.74076 18.3023 5.02441 17.5859 5.02441 16.7023V15.9372C5.02441 15.0535 5.74076 14.3372 6.62441 14.3372Z" fill="#AA8DD3"/>
<path d="M14.6732 14.3372H15.4976C16.3813 14.3372 17.0976 15.0535 17.0976 15.9372V16.7023C17.0976 17.5859 16.3813 18.3023 15.4976 18.3023H14.6732C13.7896 18.3023 13.0732 17.5859 13.0732 16.7023V15.9372C13.0732 15.0535 13.7896 14.3372 14.6732 14.3372Z" fill="#AA8DD3"/>
<path d="M10.0488 1C10.0488 0.447715 9.60111 0 9.04883 0C8.49654 0 8.04883 0.447715 8.04883 1H10.0488ZM8.04883 4.60465C8.04883 5.15694 8.49654 5.60465 9.04883 5.60465C9.60111 5.60465 10.0488 5.15694 10.0488 4.60465H8.04883ZM21.7561 1C21.7561 0.447715 21.3084 0 20.7561 0C20.2038 0 19.7561 0.447715 19.7561 1H21.7561ZM19.7561 4.60465C19.7561 5.15694 20.2038 5.60465 20.7561 5.60465C21.3084 5.60465 21.7561 5.15694 21.7561 4.60465H19.7561ZM24.139 3.80225C25.9615 3.80225 27.439 5.27977 27.439 7.10233H29.439C29.439 4.17525 27.0662 1.80225 24.139 1.80225V3.80225ZM2 7.10225C2 5.27971 3.47746 3.80225 5.3 3.80225V1.80225C2.37289 1.80225 0 4.17514 0 7.10225H2ZM5.3 30.8372H24.139V28.8372H5.3V30.8372ZM24.139 30.8372C27.0661 30.8372 29.439 28.4643 29.439 25.5372H27.439C27.439 27.3597 25.9616 28.8372 24.139 28.8372V30.8372ZM0 25.5372C0 28.4643 2.37289 30.8372 5.3 30.8372V28.8372C3.47746 28.8372 2 27.3597 2 25.5372H0ZM1 9.5697H28.439V7.5697H1V9.5697ZM6.62441 15.3372H7.4488V13.3372H6.62441V15.3372ZM8.0488 15.9372V16.7023H10.0488V15.9372H8.0488ZM7.4488 17.3023H6.62441V19.3023H7.4488V17.3023ZM6.02441 16.7023V15.9372H4.02441V16.7023H6.02441ZM6.62441 17.3023C6.29304 17.3023 6.02441 17.0336 6.02441 16.7023H4.02441C4.02441 18.1382 5.18847 19.3023 6.62441 19.3023V17.3023ZM8.0488 16.7023C8.0488 17.0336 7.78018 17.3023 7.4488 17.3023V19.3023C8.88474 19.3023 10.0488 18.1382 10.0488 16.7023H8.0488ZM7.4488 15.3372C7.78017 15.3372 8.0488 15.6058 8.0488 15.9372H10.0488C10.0488 14.5012 8.88475 13.3372 7.4488 13.3372V15.3372ZM6.62441 13.3372C5.18847 13.3372 4.02441 14.5012 4.02441 15.9372H6.02441C6.02441 15.6058 6.29304 15.3372 6.62441 15.3372V13.3372ZM14.6732 15.3372H15.4976V13.3372H14.6732V15.3372ZM16.0976 15.9372V16.7023H18.0976V15.9372H16.0976ZM15.4976 17.3023H14.6732V19.3023H15.4976V17.3023ZM14.0732 16.7023V15.9372H12.0732V16.7023H14.0732ZM14.6732 17.3023C14.3419 17.3023 14.0732 17.0336 14.0732 16.7023H12.0732C12.0732 18.1382 13.2373 19.3023 14.6732 19.3023V17.3023ZM16.0976 16.7023C16.0976 17.0336 15.829 17.3023 15.4976 17.3023V19.3023C16.9336 19.3023 18.0976 18.1382 18.0976 16.7023H16.0976ZM15.4976 15.3372C15.829 15.3372 16.0976 15.6058 16.0976 15.9372H18.0976C18.0976 14.5012 16.9336 13.3372 15.4976 13.3372V15.3372ZM14.6732 13.3372C13.2373 13.3372 12.0732 14.5012 12.0732 15.9372H14.0732C14.0732 15.6058 14.3419 15.3372 14.6732 15.3372V13.3372ZM21.9903 23.2675H22.8146V21.2675H21.9903V23.2675ZM23.4146 23.8675V24.6326H25.4146V23.8675H23.4146ZM22.8146 25.2326H21.9903V27.2326H22.8146V25.2326ZM21.3903 24.6326V23.8675H19.3903V24.6326H21.3903ZM21.9903 25.2326C21.6589 25.2326 21.3903 24.9639 21.3903 24.6326H19.3903C19.3903 26.0685 20.5543 27.2326 21.9903 27.2326V25.2326ZM23.4146 24.6326C23.4146 24.9639 23.146 25.2326 22.8146 25.2326V27.2326C24.2506 27.2326 25.4146 26.0685 25.4146 24.6326H23.4146ZM22.8146 23.2675C23.146 23.2675 23.4146 23.5361 23.4146 23.8675H25.4146C25.4146 22.4315 24.2506 21.2675 22.8146 21.2675V23.2675ZM21.9903 21.2675C20.5543 21.2675 19.3903 22.4315 19.3903 23.8675H21.3903C21.3903 23.5361 21.6589 23.2675 21.9903 23.2675V21.2675ZM6.62441 23.2675H7.4488V21.2675H6.62441V23.2675ZM8.0488 23.8675V24.6326H10.0488V23.8675H8.0488ZM7.4488 25.2326H6.62441V27.2326H7.4488V25.2326ZM6.02441 24.6326V23.8675H4.02441V24.6326H6.02441ZM6.62441 25.2326C6.29304 25.2326 6.02441 24.9639 6.02441 24.6326H4.02441C4.02441 26.0685 5.18847 27.2326 6.62441 27.2326V25.2326ZM8.0488 24.6326C8.0488 24.9639 7.78018 25.2326 7.4488 25.2326V27.2326C8.88474 27.2326 10.0488 26.0685 10.0488 24.6326H8.0488ZM7.4488 23.2675C7.78017 23.2675 8.0488 23.5361 8.0488 23.8675H10.0488C10.0488 22.4315 8.88475 21.2675 7.4488 21.2675V23.2675ZM6.62441 21.2675C5.18847 21.2675 4.02441 22.4315 4.02441 23.8675H6.02441C6.02441 23.5361 6.29304 23.2675 6.62441 23.2675V21.2675ZM2 25.5372V7.10225H0V25.5372H2ZM27.439 7.10233V25.5372H29.439V7.10233H27.439ZM29.439 25.5372V8.5697H27.439V25.5372H29.439ZM0 8.5697V25.5372H2V8.5697H0ZM9.04883 1.80225H5.3V3.80225H9.04883V1.80225ZM0 7.10225V8.5697H2V7.10225H0ZM29.439 8.5697V7.10233H27.439V8.5697H29.439ZM24.139 1.80225H20.7561V3.80225H24.139V1.80225ZM20.7561 1.80225H9.04883V3.80225H20.7561V1.80225ZM8.04883 1V2.80225H10.0488V1H8.04883ZM8.04883 2.80225V4.60465H10.0488V2.80225H8.04883ZM19.7561 1V2.80225H21.7561V1H19.7561ZM19.7561 2.80225V4.60465H21.7561V2.80225H19.7561Z" fill="#AA8DD3"/>
<path d="M1 8.5697H28.439M9.04883 4.60465V2.80225M20.7561 4.60465V2.80225M6.62441 14.3372H7.4488C8.33246 14.3372 9.0488 15.0535 9.0488 15.9372V16.7023C9.0488 17.5859 8.33246 18.3023 7.4488 18.3023H6.62441C5.74076 18.3023 5.02441 17.5859 5.02441 16.7023V15.9372C5.02441 15.0535 5.74076 14.3372 6.62441 14.3372ZM14.6732 14.3372H15.4976C16.3813 14.3372 17.0976 15.0535 17.0976 15.9372V16.7023C17.0976 17.5859 16.3813 18.3023 15.4976 18.3023H14.6732C13.7896 18.3023 13.0732 17.5859 13.0732 16.7023V15.9372C13.0732 15.0535 13.7896 14.3372 14.6732 14.3372ZM21.9903 22.2675H22.8146C23.6983 22.2675 24.4146 22.9838 24.4146 23.8675V24.6326C24.4146 25.5162 23.6983 26.2326 22.8146 26.2326H21.9903C21.1066 26.2326 20.3903 25.5162 20.3903 24.6326V23.8675C20.3903 22.9838 21.1066 22.2675 21.9903 22.2675ZM6.62441 22.2675H7.4488C8.33246 22.2675 9.0488 22.9838 9.0488 23.8675V24.6326C9.0488 25.5162 8.33246 26.2326 7.4488 26.2326H6.62441C5.74076 26.2326 5.02441 25.5162 5.02441 24.6326V23.8675C5.02441 22.9838 5.74076 22.2675 6.62441 22.2675Z" stroke="#E7E1FF" stroke-width="2" stroke-linecap="round" stroke-linejoin="round"/>
</svg>
