<svg width="30" height="31" viewBox="0 0 30 31" fill="none" xmlns="http://www.w3.org/2000/svg">
<path d="M1.09753 9.7325V7.18367C1.09753 4.80885 3.02271 2.88367 5.39753 2.88367H24.2366C26.6114 2.88367 28.5366 4.80893 28.5366 7.18375C28.5366 8.12057 28.5366 9.03798 28.5366 9.7325" stroke="#643B9F" stroke-width="2"/>
<path d="M1.09753 9.73254V25.6186C1.09753 27.9934 3.02271 29.9186 5.39753 29.9186H24.2366C26.6114 29.9186 28.5366 27.9934 28.5366 25.6186V9.73254" stroke="#643B9F" stroke-width="2"/>
<path d="M1.09753 8.65112H28.5366" stroke="#643B9F" stroke-width="2"/>
<path d="M7.54634 14.4186H6.72195C5.83829 14.4186 5.12195 15.1349 5.12195 16.0186V16.7837C5.12195 17.6673 5.83829 18.3837 6.72195 18.3837H7.54634C8.42999 18.3837 9.14634 17.6674 9.14634 16.7837V16.0186C9.14634 15.1349 8.42999 14.4186 7.54634 14.4186Z" stroke="#643B9F" stroke-width="2"/>
<path d="M15.5952 14.4186H14.7708C13.8871 14.4186 13.1708 15.1349 13.1708 16.0186V16.7837C13.1708 17.6673 13.8871 18.3837 14.7708 18.3837H15.5952C16.4788 18.3837 17.1952 17.6674 17.1952 16.7837V16.0186C17.1952 15.1349 16.4788 14.4186 15.5952 14.4186Z" stroke="#643B9F" stroke-width="2"/>
<path d="M22.9122 22.3489H22.0878C21.2041 22.3489 20.4878 23.0652 20.4878 23.9489V24.714C20.4878 25.5976 21.2041 26.314 22.0878 26.314H22.9122C23.7958 26.314 24.5122 25.5977 24.5122 24.714V23.9489C24.5122 23.0652 23.7958 22.3489 22.9122 22.3489Z" stroke="#643B9F" stroke-width="2"/>
<path d="M7.54634 22.3489H6.72195C5.83829 22.3489 5.12195 23.0652 5.12195 23.9489V24.714C5.12195 25.5976 5.83829 26.314 6.72195 26.314H7.54634C8.42999 26.314 9.14634 25.5977 9.14634 24.714V23.9489C9.14634 23.0652 8.42999 22.3489 7.54634 22.3489Z" stroke="#643B9F" stroke-width="2"/>
<path d="M9.14636 0.360474V5.40699" stroke="#643B9F" stroke-width="2"/>
<path d="M20.8536 0.360474V5.40699" stroke="#643B9F" stroke-width="2"/>
</svg>
